<svg width="746" height="746" viewBox="0 0 746 746" fill="none" xmlns="http://www.w3.org/2000/svg">
<path d="M746 373C746 295.463 721.837 219.853 676.87 156.686C631.904 93.5191 568.371 45.9353 495.106 20.5526C421.841 -4.83008 342.487 -6.74989 268.081 15.0602C193.674 36.8703 127.914 81.326 79.9455 142.245L373 373H746Z" fill="white"/>
<path d="M310.816 173.76C310.816 183.52 306.176 189 297.656 189H285.736V159.68H297.536C305.376 159.68 310.816 163.68 310.816 173.76ZM300.816 173.92C300.816 167.92 300.016 167.32 297.496 167.32H295.256V181.24H297.456C300.656 181.24 300.816 180.28 300.816 173.92ZM325.888 155.36C325.888 157.48 324.648 158.64 322.208 158.64C320.008 158.64 318.648 157.6 318.648 155.36C318.648 153.16 320.048 152.08 322.288 152.08C324.368 152.08 325.888 153.04 325.888 155.36ZM334.408 155.36C334.408 157.48 333.128 158.64 330.768 158.64C328.568 158.64 327.168 157.6 327.168 155.36C327.168 153.16 328.608 152.08 330.808 152.08C332.928 152.08 334.408 153.04 334.408 155.36ZM338.288 177.68C338.288 186.12 334.488 189.4 326.208 189.4C319.568 189.4 314.128 187.84 314.128 177.68V159.68H323.768V178.16C323.768 180.48 323.968 181.04 326.408 181.04C328.768 181.04 329.048 180.48 329.048 178.16V159.68H338.288V177.68ZM366.239 180.76V189C365.279 189.12 363.879 189.24 363.079 189.24C359.119 189.24 357.479 187.92 355.959 184.56L353.479 179.08H352.439V189H343.119V159.68H355.719C361.799 159.68 366.039 162.08 366.039 168.6C366.039 172.32 364.559 174.96 362.159 176.6L364.079 180.08C364.399 180.68 364.559 180.84 365.279 180.84C365.599 180.84 365.959 180.8 366.239 180.76ZM356.559 169.48C356.559 167.52 356.039 166.96 354.879 166.96H352.439V172.24H354.759C356.039 172.24 356.559 171.6 356.559 169.48ZM388.588 179.24H379.828V189H370.228V159.68H389.428V167.68H379.828V171.2H388.588V179.24ZM413.912 189H393.392V159.68H413.192V167.68H402.992V170.32H412.392V178.28H402.992V181H413.512L413.912 189ZM441.807 189H432.967L427.927 177.92C427.447 176.88 426.967 175.44 426.727 174.12H426.247C426.327 175.32 426.407 176.8 426.407 177.92V189H417.767V159.68H427.567L431.607 168.56C432.087 169.48 432.527 170.88 432.847 172.36H433.327C433.207 171.12 433.127 169.76 433.127 168.56V159.68H441.807V189ZM478.955 189H470.115L465.075 177.92C464.595 176.88 464.115 175.44 463.875 174.12H463.395C463.475 175.32 463.555 176.8 463.555 177.92V189H454.915V159.68H464.715L468.755 168.56C469.235 169.48 469.675 170.88 469.995 172.36H470.475C470.355 171.12 470.275 169.76 470.275 168.56V159.68H478.955V189ZM493.656 189H484.056V159.68H493.656V189ZM519.063 187.6C513.663 189.28 512.343 189.4 510.103 189.4C500.503 189.4 497.263 184.04 497.263 174.32C497.263 163 502.263 159.28 509.943 159.28C512.303 159.28 515.103 159.68 518.743 160.92L516.983 169.24C512.823 167.76 511.543 167.56 510.183 167.56C508.063 167.56 507.303 168.16 507.303 174.24C507.303 180.72 507.983 181.12 510.463 181.12C511.903 181.12 513.423 180.88 517.583 179.04L519.063 187.6ZM547.326 189H537.646V177.84H532.406V189H522.806V159.68H532.406V169.8H537.646V159.68H547.326V189ZM572.135 167.68L566.135 167.68V189H556.495V167.68H550.575V159.68L572.135 159.68V167.68ZM381.862 209.68L376.582 239H366.302L363.502 225.56C363.262 224.48 363.142 223.04 363.142 221.52H362.662C362.662 223.04 362.542 224.52 362.342 225.56L359.542 239H349.262L343.982 209.68H353.422L354.902 223.04C355.062 224.4 355.182 226.56 355.182 227.56H355.662C355.662 226.56 355.782 224.4 356.022 223.04L358.222 211.16H368.022L370.142 223.04C370.422 224.72 370.502 226.64 370.502 227.56H370.982C370.982 226.64 371.102 224.72 371.302 223.04L372.862 209.68H381.862ZM394.8 205.36C394.8 207.48 393.56 208.64 391.12 208.64C388.92 208.64 387.56 207.6 387.56 205.36C387.56 203.16 388.96 202.08 391.2 202.08C393.28 202.08 394.8 203.04 394.8 205.36ZM403.32 205.36C403.32 207.48 402.04 208.64 399.68 208.64C397.48 208.64 396.08 207.6 396.08 205.36C396.08 203.16 397.52 202.08 399.72 202.08C401.84 202.08 403.32 203.04 403.32 205.36ZM408.92 239H399.16L398.24 233.48H392.08L391.04 239H381.56L388.96 209.68H401.92L408.92 239ZM396.68 226.28L395.92 221.52C395.64 219.84 395.56 217.92 395.56 216.92H395.08C395.08 217.92 394.92 219.84 394.6 221.56L393.76 226.28H396.68ZM435.412 239H425.732V227.84H420.492V239H410.892V209.68H420.492V219.8H425.732V209.68H435.412V239ZM458.98 239H440.54V209.68H450.14V230.96H458.38L458.98 239ZM482.662 239H462.142V209.68H481.942V217.68H471.742V220.32H481.142V228.28H471.742V231H482.262L482.662 239ZM510.557 239H501.717L496.677 227.92C496.197 226.88 495.717 225.44 495.477 224.12H494.997C495.077 225.32 495.157 226.8 495.157 227.92V239H486.517V209.68H496.317L500.357 218.56C500.837 219.48 501.277 220.88 501.597 222.36H502.077C501.957 221.12 501.877 219.76 501.877 218.56V209.68H510.557V239Z" fill="#E10078"/>
<mask id="path-3-inside-1_17_463" fill="white">
<path d="M179.724 692.02C236.317 726.306 301.013 744.921 367.174 745.955C433.335 746.988 498.58 730.403 556.216 697.901C613.853 665.399 661.806 618.15 695.157 561C728.507 503.851 746.055 438.858 746 372.689L373 373L179.724 692.02Z"/>
</mask>
<path d="M179.724 692.02C236.317 726.306 301.013 744.921 367.174 745.955C433.335 746.988 498.58 730.403 556.216 697.901C613.853 665.399 661.806 618.15 695.157 561C728.507 503.851 746.055 438.858 746 372.689L373 373L179.724 692.02Z" stroke="white" stroke-width="22" mask="url(#path-3-inside-1_17_463)"/>
<path d="M381.318 534.2C377.478 535.56 373.598 536.4 370.118 536.4C361.078 536.4 357.438 531.56 357.438 521.32C357.438 510.52 361.718 506.28 371.158 506.28C373.318 506.28 376.278 506.56 381.038 507.92L379.278 516.24C375.598 514.92 372.958 514.56 371.118 514.56C368.158 514.56 367.478 514.96 367.478 521.24C367.478 527.6 368.078 528.16 370.638 528.16C371.078 528.16 371.918 528.12 372.438 528.04V525.52H370.198V518.2H381.318V534.2ZM406.666 536H386.146V506.68H405.946V514.68H395.746V517.32H405.146V525.28H395.746V528H406.266L406.666 536ZM435.041 536H425.361V524.84H420.121V536H410.521V506.68H420.121V516.8H425.361V506.68H435.041V536ZM460.689 536H440.169V506.68H459.969V514.68H449.769V517.32H459.169V525.28H449.769V528H460.289L460.689 536ZM488.584 536H479.744L474.704 524.92C474.224 523.88 473.744 522.44 473.504 521.12H473.024C473.104 522.32 473.184 523.8 473.184 524.92V536H464.544V506.68H474.344L478.384 515.56C478.864 516.48 479.304 517.88 479.624 519.36H480.104C479.984 518.12 479.904 516.76 479.904 515.56V506.68H488.584V536ZM525.733 536H516.893L511.853 524.92C511.373 523.88 510.893 522.44 510.653 521.12H510.173C510.253 522.32 510.333 523.8 510.333 524.92V536H501.693V506.68H511.493L515.533 515.56C516.013 516.48 516.453 517.88 516.773 519.36H517.253C517.133 518.12 517.053 516.76 517.053 515.56V506.68H525.733V536ZM540.433 536H530.833V506.68H540.433V536ZM565.84 534.6C560.44 536.28 559.12 536.4 556.88 536.4C547.28 536.4 544.04 531.04 544.04 521.32C544.04 510 549.04 506.28 556.72 506.28C559.08 506.28 561.88 506.68 565.52 507.92L563.76 516.24C559.6 514.76 558.32 514.56 556.96 514.56C554.84 514.56 554.08 515.16 554.08 521.24C554.08 527.72 554.76 528.12 557.24 528.12C558.68 528.12 560.2 527.88 564.36 526.04L565.84 534.6ZM594.103 536H584.423V524.84H579.183V536H569.583V506.68H579.183V516.8H584.423V506.68H594.103V536ZM618.912 514.68H612.912V536H603.272V514.68H597.352V506.68H618.912V514.68ZM441.862 556.68L436.582 586H426.302L423.502 572.56C423.262 571.48 423.142 570.04 423.142 568.52H422.662C422.662 570.04 422.542 571.52 422.342 572.56L419.542 586H409.262L403.982 556.68H413.422L414.902 570.04C415.062 571.4 415.182 573.56 415.182 574.56H415.662C415.662 573.56 415.782 571.4 416.022 570.04L418.222 558.16H428.022L430.142 570.04C430.422 571.72 430.502 573.64 430.502 574.56H430.982C430.982 573.64 431.102 571.72 431.302 570.04L432.862 556.68H441.862ZM454.8 552.36C454.8 554.48 453.56 555.64 451.12 555.64C448.92 555.64 447.56 554.6 447.56 552.36C447.56 550.16 448.96 549.08 451.2 549.08C453.28 549.08 454.8 550.04 454.8 552.36ZM463.32 552.36C463.32 554.48 462.04 555.64 459.68 555.64C457.48 555.64 456.08 554.6 456.08 552.36C456.08 550.16 457.52 549.08 459.72 549.08C461.84 549.08 463.32 550.04 463.32 552.36ZM468.92 586H459.16L458.24 580.48H452.08L451.04 586H441.56L448.96 556.68H461.92L468.92 586ZM456.68 573.28L455.92 568.52C455.64 566.84 455.56 564.92 455.56 563.92H455.08C455.08 564.92 454.92 566.84 454.6 568.56L453.76 573.28H456.68ZM495.412 586H485.732V574.84H480.492V586H470.892V556.68H480.492V566.8H485.732V556.68H495.412V586ZM518.98 586H500.54V556.68H510.14V577.96H518.38L518.98 586ZM542.662 586H522.142V556.68H541.942V564.68H531.742V567.32H541.142V575.28H531.742V578H542.262L542.662 586ZM570.557 586H561.717L556.677 574.92C556.197 573.88 555.717 572.44 555.477 571.12H554.997C555.077 572.32 555.157 573.8 555.157 574.92V586H546.517V556.68H556.317L560.357 565.56C560.837 566.48 561.277 567.88 561.597 569.36H562.077C561.957 568.12 561.877 566.76 561.877 565.56V556.68H570.557V586Z" fill="white"/>
<path d="M79.771 142.466C47.1575 183.949 23.717 231.88 10.9978 283.092C-1.72146 334.304 -3.42982 387.633 5.98552 439.554C15.4009 491.475 35.7256 540.808 65.6172 584.293C95.5087 627.779 134.287 664.427 179.389 691.817L373 373L79.771 142.466Z" fill="#84B414"/>
<path d="M124.057 394.2C120.217 395.56 116.337 396.4 112.857 396.4C103.817 396.4 100.177 391.56 100.177 381.32C100.177 370.52 104.457 366.28 113.897 366.28C116.057 366.28 119.017 366.56 123.777 367.92L122.017 376.24C118.337 374.92 115.697 374.56 113.857 374.56C110.897 374.56 110.217 374.96 110.217 381.24C110.217 387.6 110.817 388.16 113.377 388.16C113.817 388.16 114.657 388.12 115.177 388.04V385.52H112.937V378.2H124.057V394.2ZM149.404 396H128.884V366.68H148.684V374.68H138.484V377.32H147.884V385.28H138.484V388H149.004L149.404 396ZM177.779 396H168.099V384.84H162.859V396H153.259V366.68H162.859V376.8H168.099V366.68H177.779V396ZM203.428 396H182.908V366.68H202.708V374.68H192.508V377.32H201.908V385.28H192.508V388H203.028L203.428 396ZM231.323 396H222.483L217.443 384.92C216.963 383.88 216.483 382.44 216.243 381.12H215.763C215.843 382.32 215.923 383.8 215.923 384.92V396H207.283V366.68H217.083L221.123 375.56C221.603 376.48 222.043 377.88 222.363 379.36H222.843C222.723 378.12 222.643 376.76 222.643 375.56V366.68H231.323V396ZM120.362 416.68L115.082 446H104.802L102.002 432.56C101.762 431.48 101.642 430.04 101.642 428.52H101.162C101.162 430.04 101.042 431.52 100.842 432.56L98.0423 446H87.7623L82.4823 416.68H91.9223L93.4023 430.04C93.5623 431.4 93.6823 433.56 93.6823 434.56H94.1623C94.1623 433.56 94.2823 431.4 94.5223 430.04L96.7223 418.16H106.522L108.642 430.04C108.922 431.72 109.002 433.64 109.002 434.56H109.482C109.482 433.64 109.602 431.72 109.802 430.04L111.362 416.68H120.362ZM133.3 412.36C133.3 414.48 132.06 415.64 129.62 415.64C127.42 415.64 126.06 414.6 126.06 412.36C126.06 410.16 127.46 409.08 129.7 409.08C131.78 409.08 133.3 410.04 133.3 412.36ZM141.82 412.36C141.82 414.48 140.54 415.64 138.18 415.64C135.98 415.64 134.58 414.6 134.58 412.36C134.58 410.16 136.02 409.08 138.22 409.08C140.34 409.08 141.82 410.04 141.82 412.36ZM147.42 446H137.66L136.74 440.48H130.58L129.54 446H120.06L127.46 416.68H140.42L147.42 446ZM135.18 433.28L134.42 428.52C134.14 426.84 134.06 424.92 134.06 423.92H133.58C133.58 424.92 133.42 426.84 133.1 428.56L132.26 433.28H135.18ZM173.912 446H164.232V434.84H158.992V446H149.392V416.68H158.992V426.8H164.232V416.68H173.912V446ZM197.48 446H179.04V416.68H188.64V437.96H196.88L197.48 446ZM221.162 446H200.642V416.68H220.442V424.68H210.242V427.32H219.642V435.28H210.242V438H220.762L221.162 446ZM249.057 446H240.217L235.177 434.92C234.697 433.88 234.217 432.44 233.977 431.12H233.497C233.577 432.32 233.657 433.8 233.657 434.92V446H225.017V416.68H234.817L238.857 425.56C239.337 426.48 239.777 427.88 240.097 429.36H240.577C240.457 428.12 240.377 426.76 240.377 425.56V416.68H249.057V446Z" fill="white"/>
</svg>
