<svg width="746" height="746" viewBox="0 0 746 746" fill="none" xmlns="http://www.w3.org/2000/svg">
<path d="M746 373C746 295.463 721.837 219.853 676.87 156.686C631.904 93.5191 568.371 45.9353 495.106 20.5526C421.841 -4.83008 342.487 -6.74989 268.081 15.0602C193.674 36.8703 127.914 81.326 79.9455 142.245L373 373H746Z" fill="white"/>
<path d="M310.816 173.76C310.816 183.52 306.176 189 297.656 189H285.736V159.68H297.536C305.376 159.68 310.816 163.68 310.816 173.76ZM300.816 173.92C300.816 167.92 300.016 167.32 297.496 167.32H295.256V181.24H297.456C300.656 181.24 300.816 180.28 300.816 173.92ZM325.888 155.36C325.888 157.48 324.648 158.64 322.208 158.64C320.008 158.64 318.648 157.6 318.648 155.36C318.648 153.16 320.048 152.08 322.288 152.08C324.368 152.08 325.888 153.04 325.888 155.36ZM334.408 155.36C334.408 157.48 333.128 158.64 330.768 158.64C328.568 158.64 327.168 157.6 327.168 155.36C327.168 153.16 328.608 152.08 330.808 152.08C332.928 152.08 334.408 153.04 334.408 155.36ZM338.288 177.68C338.288 186.12 334.488 189.4 326.208 189.4C319.568 189.4 314.128 187.84 314.128 177.68V159.68H323.768V178.16C323.768 180.48 323.968 181.04 326.408 181.04C328.768 181.04 329.048 180.48 329.048 178.16V159.68H338.288V177.68ZM366.239 180.76V189C365.279 189.12 363.879 189.24 363.079 189.24C359.119 189.24 357.479 187.92 355.959 184.56L353.479 179.08H352.439V189H343.119V159.68H355.719C361.799 159.68 366.039 162.08 366.039 168.6C366.039 172.32 364.559 174.96 362.159 176.6L364.079 180.08C364.399 180.68 364.559 180.84 365.279 180.84C365.599 180.84 365.959 180.8 366.239 180.76ZM356.559 169.48C356.559 167.52 356.039 166.96 354.879 166.96H352.439V172.24H354.759C356.039 172.24 356.559 171.6 356.559 169.48ZM388.588 179.24H379.828V189H370.228V159.68H389.428V167.68H379.828V171.2H388.588V179.24ZM413.912 189H393.392V159.68H413.192V167.68H402.992V170.32H412.392V178.28H402.992V181H413.512L413.912 189ZM441.807 189H432.967L427.927 177.92C427.447 176.88 426.967 175.44 426.727 174.12H426.247C426.327 175.32 426.407 176.8 426.407 177.92V189H417.767V159.68H427.567L431.607 168.56C432.087 169.48 432.527 170.88 432.847 172.36H433.327C433.207 171.12 433.127 169.76 433.127 168.56V159.68H441.807V189ZM478.955 189H470.115L465.075 177.92C464.595 176.88 464.115 175.44 463.875 174.12H463.395C463.475 175.32 463.555 176.8 463.555 177.92V189H454.915V159.68H464.715L468.755 168.56C469.235 169.48 469.675 170.88 469.995 172.36H470.475C470.355 171.12 470.275 169.76 470.275 168.56V159.68H478.955V189ZM493.656 189H484.056V159.68H493.656V189ZM519.063 187.6C513.663 189.28 512.343 189.4 510.103 189.4C500.503 189.4 497.263 184.04 497.263 174.32C497.263 163 502.263 159.28 509.943 159.28C512.303 159.28 515.103 159.68 518.743 160.92L516.983 169.24C512.823 167.76 511.543 167.56 510.183 167.56C508.063 167.56 507.303 168.16 507.303 174.24C507.303 180.72 507.983 181.12 510.463 181.12C511.903 181.12 513.423 180.88 517.583 179.04L519.063 187.6ZM547.326 189H537.646V177.84H532.406V189H522.806V159.68H532.406V169.8H537.646V159.68H547.326V189ZM572.135 167.68L566.135 167.68V189H556.495V167.68H550.575V159.68L572.135 159.68V167.68ZM381.862 209.68L376.582 239H366.302L363.502 225.56C363.262 224.48 363.142 223.04 363.142 221.52H362.662C362.662 223.04 362.542 224.52 362.342 225.56L359.542 239H349.262L343.982 209.68H353.422L354.902 223.04C355.062 224.4 355.182 226.56 355.182 227.56H355.662C355.662 226.56 355.782 224.4 356.022 223.04L358.222 211.16H368.022L370.142 223.04C370.422 224.72 370.502 226.64 370.502 227.56H370.982C370.982 226.64 371.102 224.72 371.302 223.04L372.862 209.68H381.862ZM394.8 205.36C394.8 207.48 393.56 208.64 391.12 208.64C388.92 208.64 387.56 207.6 387.56 205.36C387.56 203.16 388.96 202.08 391.2 202.08C393.28 202.08 394.8 203.04 394.8 205.36ZM403.32 205.36C403.32 207.48 402.04 208.64 399.68 208.64C397.48 208.64 396.08 207.6 396.08 205.36C396.08 203.16 397.52 202.08 399.72 202.08C401.84 202.08 403.32 203.04 403.32 205.36ZM408.92 239H399.16L398.24 233.48H392.08L391.04 239H381.56L388.96 209.68H401.92L408.92 239ZM396.68 226.28L395.92 221.52C395.64 219.84 395.56 217.92 395.56 216.92H395.08C395.08 217.92 394.92 219.84 394.6 221.56L393.76 226.28H396.68ZM435.412 239H425.732V227.84H420.492V239H410.892V209.68H420.492V219.8H425.732V209.68H435.412V239ZM458.98 239H440.54V209.68H450.14V230.96H458.38L458.98 239ZM482.662 239H462.142V209.68H481.942V217.68H471.742V220.32H481.142V228.28H471.742V231H482.262L482.662 239ZM510.557 239H501.717L496.677 227.92C496.197 226.88 495.717 225.44 495.477 224.12H494.997C495.077 225.32 495.157 226.8 495.157 227.92V239H486.517V209.68H496.317L500.357 218.56C500.837 219.48 501.277 220.88 501.597 222.36H502.077C501.957 221.12 501.877 219.76 501.877 218.56V209.68H510.557V239Z" fill="#E10078"/>
</svg>
