<svg width="746" height="746" viewBox="0 0 746 746" fill="none" xmlns="http://www.w3.org/2000/svg">
<path d="M79.771 142.466C47.1575 183.949 23.717 231.88 10.9978 283.092C-1.72146 334.304 -3.42982 387.633 5.98552 439.554C15.4009 491.475 35.7256 540.808 65.6172 584.293C95.5087 627.779 134.287 664.427 179.389 691.817L373 373L79.771 142.466Z" fill="#84B414"/>
<path d="M124.057 394.2C120.217 395.56 116.337 396.4 112.857 396.4C103.817 396.4 100.177 391.56 100.177 381.32C100.177 370.52 104.457 366.28 113.897 366.28C116.057 366.28 119.017 366.56 123.777 367.92L122.017 376.24C118.337 374.92 115.697 374.56 113.857 374.56C110.897 374.56 110.217 374.96 110.217 381.24C110.217 387.6 110.817 388.16 113.377 388.16C113.817 388.16 114.657 388.12 115.177 388.04V385.52H112.937V378.2H124.057V394.2ZM149.404 396H128.884V366.68H148.684V374.68H138.484V377.32H147.884V385.28H138.484V388H149.004L149.404 396ZM177.779 396H168.099V384.84H162.859V396H153.259V366.68H162.859V376.8H168.099V366.68H177.779V396ZM203.428 396H182.908V366.68H202.708V374.68H192.508V377.32H201.908V385.28H192.508V388H203.028L203.428 396ZM231.323 396H222.483L217.443 384.92C216.963 383.88 216.483 382.44 216.243 381.12H215.763C215.843 382.32 215.923 383.8 215.923 384.92V396H207.283V366.68H217.083L221.123 375.56C221.603 376.48 222.043 377.88 222.363 379.36H222.843C222.723 378.12 222.643 376.76 222.643 375.56V366.68H231.323V396ZM120.362 416.68L115.082 446H104.802L102.002 432.56C101.762 431.48 101.642 430.04 101.642 428.52H101.162C101.162 430.04 101.042 431.52 100.842 432.56L98.0423 446H87.7623L82.4823 416.68H91.9223L93.4023 430.04C93.5623 431.4 93.6823 433.56 93.6823 434.56H94.1623C94.1623 433.56 94.2823 431.4 94.5223 430.04L96.7223 418.16H106.522L108.642 430.04C108.922 431.72 109.002 433.64 109.002 434.56H109.482C109.482 433.64 109.602 431.72 109.802 430.04L111.362 416.68H120.362ZM133.3 412.36C133.3 414.48 132.06 415.64 129.62 415.64C127.42 415.64 126.06 414.6 126.06 412.36C126.06 410.16 127.46 409.08 129.7 409.08C131.78 409.08 133.3 410.04 133.3 412.36ZM141.82 412.36C141.82 414.48 140.54 415.64 138.18 415.64C135.98 415.64 134.58 414.6 134.58 412.36C134.58 410.16 136.02 409.08 138.22 409.08C140.34 409.08 141.82 410.04 141.82 412.36ZM147.42 446H137.66L136.74 440.48H130.58L129.54 446H120.06L127.46 416.68H140.42L147.42 446ZM135.18 433.28L134.42 428.52C134.14 426.84 134.06 424.92 134.06 423.92H133.58C133.58 424.92 133.42 426.84 133.1 428.56L132.26 433.28H135.18ZM173.912 446H164.232V434.84H158.992V446H149.392V416.68H158.992V426.8H164.232V416.68H173.912V446ZM197.48 446H179.04V416.68H188.64V437.96H196.88L197.48 446ZM221.162 446H200.642V416.68H220.442V424.68H210.242V427.32H219.642V435.28H210.242V438H220.762L221.162 446ZM249.057 446H240.217L235.177 434.92C234.697 433.88 234.217 432.44 233.977 431.12H233.497C233.577 432.32 233.657 433.8 233.657 434.92V446H225.017V416.68H234.817L238.857 425.56C239.337 426.48 239.777 427.88 240.097 429.36H240.577C240.457 428.12 240.377 426.76 240.377 425.56V416.68H249.057V446Z" fill="white"/>
</svg>
