<svg width="746" height="746" viewBox="0 0 746 746" fill="none" xmlns="http://www.w3.org/2000/svg">
<mask id="path-1-inside-1_3_53" fill="white">
<path d="M179.724 692.02C236.317 726.306 301.013 744.921 367.174 745.955C433.335 746.988 498.58 730.403 556.216 697.901C613.853 665.399 661.806 618.15 695.157 561C728.507 503.851 746.055 438.858 746 372.689L373 373L179.724 692.02Z"/>
</mask>
<path d="M179.724 692.02C236.317 726.306 301.013 744.921 367.174 745.955C433.335 746.988 498.58 730.403 556.216 697.901C613.853 665.399 661.806 618.15 695.157 561C728.507 503.851 746.055 438.858 746 372.689L373 373L179.724 692.02Z" stroke="white" stroke-width="22" mask="url(#path-1-inside-1_3_53)"/>
<path d="M381.318 534.2C377.478 535.56 373.598 536.4 370.118 536.4C361.078 536.4 357.438 531.56 357.438 521.32C357.438 510.52 361.718 506.28 371.158 506.28C373.318 506.28 376.278 506.56 381.038 507.92L379.278 516.24C375.598 514.92 372.958 514.56 371.118 514.56C368.158 514.56 367.478 514.96 367.478 521.24C367.478 527.6 368.078 528.16 370.638 528.16C371.078 528.16 371.918 528.12 372.438 528.04V525.52H370.198V518.2H381.318V534.2ZM406.666 536H386.146V506.68H405.946V514.68H395.746V517.32H405.146V525.28H395.746V528H406.266L406.666 536ZM435.041 536H425.361V524.84H420.121V536H410.521V506.68H420.121V516.8H425.361V506.68H435.041V536ZM460.689 536H440.169V506.68H459.969V514.68H449.769V517.32H459.169V525.28H449.769V528H460.289L460.689 536ZM488.584 536H479.744L474.704 524.92C474.224 523.88 473.744 522.44 473.504 521.12H473.024C473.104 522.32 473.184 523.8 473.184 524.92V536H464.544V506.68H474.344L478.384 515.56C478.864 516.48 479.304 517.88 479.624 519.36H480.104C479.984 518.12 479.904 516.76 479.904 515.56V506.68H488.584V536ZM525.733 536H516.893L511.853 524.92C511.373 523.88 510.893 522.44 510.653 521.12H510.173C510.253 522.32 510.333 523.8 510.333 524.92V536H501.693V506.68H511.493L515.533 515.56C516.013 516.48 516.453 517.88 516.773 519.36H517.253C517.133 518.12 517.053 516.76 517.053 515.56V506.68H525.733V536ZM540.433 536H530.833V506.68H540.433V536ZM565.84 534.6C560.44 536.28 559.12 536.4 556.88 536.4C547.28 536.4 544.04 531.04 544.04 521.32C544.04 510 549.04 506.28 556.72 506.28C559.08 506.28 561.88 506.68 565.52 507.92L563.76 516.24C559.6 514.76 558.32 514.56 556.96 514.56C554.84 514.56 554.08 515.16 554.08 521.24C554.08 527.72 554.76 528.12 557.24 528.12C558.68 528.12 560.2 527.88 564.36 526.04L565.84 534.6ZM594.103 536H584.423V524.84H579.183V536H569.583V506.68H579.183V516.8H584.423V506.68H594.103V536ZM618.912 514.68H612.912V536H603.272V514.68H597.352V506.68H618.912V514.68ZM441.862 556.68L436.582 586H426.302L423.502 572.56C423.262 571.48 423.142 570.04 423.142 568.52H422.662C422.662 570.04 422.542 571.52 422.342 572.56L419.542 586H409.262L403.982 556.68H413.422L414.902 570.04C415.062 571.4 415.182 573.56 415.182 574.56H415.662C415.662 573.56 415.782 571.4 416.022 570.04L418.222 558.16H428.022L430.142 570.04C430.422 571.72 430.502 573.64 430.502 574.56H430.982C430.982 573.64 431.102 571.72 431.302 570.04L432.862 556.68H441.862ZM454.8 552.36C454.8 554.48 453.56 555.64 451.12 555.64C448.92 555.64 447.56 554.6 447.56 552.36C447.56 550.16 448.96 549.08 451.2 549.08C453.28 549.08 454.8 550.04 454.8 552.36ZM463.32 552.36C463.32 554.48 462.04 555.64 459.68 555.64C457.48 555.64 456.08 554.6 456.08 552.36C456.08 550.16 457.52 549.08 459.72 549.08C461.84 549.08 463.32 550.04 463.32 552.36ZM468.92 586H459.16L458.24 580.48H452.08L451.04 586H441.56L448.96 556.68H461.92L468.92 586ZM456.68 573.28L455.92 568.52C455.64 566.84 455.56 564.92 455.56 563.92H455.08C455.08 564.92 454.92 566.84 454.6 568.56L453.76 573.28H456.68ZM495.412 586H485.732V574.84H480.492V586H470.892V556.68H480.492V566.8H485.732V556.68H495.412V586ZM518.98 586H500.54V556.68H510.14V577.96H518.38L518.98 586ZM542.662 586H522.142V556.68H541.942V564.68H531.742V567.32H541.142V575.28H531.742V578H542.262L542.662 586ZM570.557 586H561.717L556.677 574.92C556.197 573.88 555.717 572.44 555.477 571.12H554.997C555.077 572.32 555.157 573.8 555.157 574.92V586H546.517V556.68H556.317L560.357 565.56C560.837 566.48 561.277 567.88 561.597 569.36H562.077C561.957 568.12 561.877 566.76 561.877 565.56V556.68H570.557V586Z" fill="white"/>
</svg>
