<?xml version="1.0" standalone="no"?>
<!DOCTYPE svg PUBLIC "-//W3C//DTD SVG 20010904//EN"
 "http://www.w3.org/TR/2001/REC-SVG-20010904/DTD/svg10.dtd">
<svg version="1.0" xmlns="http://www.w3.org/2000/svg"
 width="200.000000pt" height="200.000000pt" viewBox="0 0 200.000000 200.000000"
 preserveAspectRatio="xMidYMid meet">
<metadata>
Created by potrace 1.14, written by Peter Selinger 2001-2017
</metadata>
<g transform="translate(0.000000,200.000000) scale(0.100000,-0.100000)"
fill="#000000" stroke="none">
<path d="M1120 1961 c-146 -22 -400 -58 -565 -80 -165 -23 -314 -46 -330 -52
-47 -14 -103 -66 -133 -123 l-27 -51 -3 -642 c-2 -433 1 -656 8 -682 6 -22 22
-54 36 -70 30 -35 417 -250 466 -257 18 -3 213 20 433 51 220 30 481 67 580
81 99 13 197 32 218 41 20 9 55 35 77 59 71 77 70 68 70 783 0 597 -2 638 -19
676 -10 22 -29 49 -42 61 -13 11 -113 69 -221 128 -139 75 -209 107 -240 111
-24 2 -162 -13 -308 -34z m-463 -716 c36 -21 63 -63 63 -99 0 -24 -3 -26 -44
-26 -38 0 -45 3 -50 25 -9 35 -71 53 -126 36 -35 -10 -40 -16 -40 -41 0 -37
16 -46 117 -65 111 -21 166 -68 166 -142 0 -58 -26 -98 -78 -123 -61 -30 -198
-27 -241 6 -39 29 -63 64 -66 99 -3 29 -2 30 45 33 41 3 47 1 47 -17 0 -34 46
-61 106 -61 58 0 94 22 94 58 0 38 -29 55 -120 72 -35 6 -81 20 -103 31 -97
50 -81 191 26 227 48 16 168 9 204 -13z m464 0 c41 -22 69 -71 69 -123 0 -100
-59 -141 -202 -142 l-87 0 -3 -92 -3 -93 -45 0 -45 0 -3 233 -2 232 145 0
c112 0 153 -4 176 -15z"/>
<path d="M900 1120 l0 -60 80 0 c67 0 83 3 100 20 24 24 25 48 4 78 -14 20
-24 22 -100 22 l-84 0 0 -60z"/>
</g>
</svg>
