<?xml version="1.0" standalone="no"?>
<!DOCTYPE svg PUBLIC "-//W3C//DTD SVG 20010904//EN"
 "http://www.w3.org/TR/2001/REC-SVG-20010904/DTD/svg10.dtd">
<svg version="1.0" xmlns="http://www.w3.org/2000/svg"
 width="150.000000pt" height="150.000000pt" viewBox="0 0 150.000000 150.000000"
 preserveAspectRatio="xMidYMid meet">
<metadata>
Created by potrace 1.14, written by Peter Selinger 2001-2017
</metadata>
<g transform="translate(0.000000,150.000000) scale(0.100000,-0.100000)"
fill="#000000" stroke="none">
<path d="M630 1316 c-194 -43 -351 -140 -454 -281 -27 -37 -25 -36 30 16 145
136 273 204 429 227 66 9 268 9 380 -2 165 -15 226 -16 219 -4 -5 7 -2 9 9 5
9 -3 19 -2 21 2 3 5 -21 7 -54 6 -33 -1 -58 1 -55 5 2 3 -1 7 -8 8 -7 0 -24 3
-38 6 -118 26 -384 32 -479 12z"/>
<path d="M1280 1270 c-9 -6 -10 -10 -3 -10 6 0 15 5 18 10 8 12 4 12 -15 0z"/>
<path d="M1360 1236 c-14 -8 -55 -49 -92 -93 -38 -43 -85 -95 -105 -117 l-37
-39 34 19 c19 10 39 17 43 16 5 -1 6 2 2 8 -4 6 7 15 25 21 17 6 29 13 27 15
-2 3 12 21 33 42 20 20 43 46 51 58 8 11 27 27 44 35 34 16 47 49 18 49 -10
-1 -29 -7 -43 -14z"/>
<path d="M633 1193 c-4 -16 -6 -50 -6 -77 2 -70 -8 -76 -93 -56 -39 10 -101
19 -138 22 -75 5 -76 4 -51 -77 8 -27 13 -49 12 -50 -19 -7 -157 -73 -242
-116 -96 -48 -110 -59 -113 -83 l-3 -27 72 36 c59 30 74 34 80 22 18 -32 102
-89 163 -111 36 -13 67 -22 70 -20 3 2 4 1 2 -2 -3 -3 -40 -19 -83 -34 -129
-46 -268 -116 -290 -147 -44 -59 23 -84 212 -78 73 2 154 11 185 19 30 8 55
14 56 13 1 -2 11 -101 13 -140 1 -5 4 -6 9 -4 4 3 50 8 102 11 52 4 111 9 130
11 19 2 67 6 105 10 39 3 90 7 115 10 175 16 239 22 350 30 47 3 94 8 105 10
11 2 39 4 63 4 l42 1 0 200 0 200 -62 -5 c-59 -4 -99 -8 -238 -20 -30 -2 -86
-7 -123 -11 l-68 -6 7 26 c4 19 2 28 -10 32 -18 7 -22 34 -5 34 14 0 2 18 -21
30 -15 8 -19 7 -17 -9 0 -11 5 -17 9 -15 4 3 8 -2 8 -10 0 -17 -25 -32 -55
-31 -15 0 -21 8 -23 32 -4 38 -36 52 -72 33 -32 -17 -36 -5 -6 15 17 11 39 16
62 13 32 -4 34 -3 18 9 -10 7 -21 13 -25 13 -7 0 -6 12 3 40 3 8 18 54 33 103
16 48 32 87 37 87 5 0 5 -12 2 -27 -6 -22 -4 -25 10 -20 9 4 15 3 12 -2 -3 -5
4 -21 15 -35 21 -27 27 -75 14 -115 -11 -34 5 -24 21 14 16 39 18 102 5 137
-5 13 -24 38 -42 56 l-33 34 -23 -29 c-13 -15 -29 -46 -35 -68 -15 -53 -24
-62 -33 -34 -4 13 -14 32 -22 41 -8 9 -12 22 -7 29 4 7 3 10 -3 6 -5 -4 -23 7
-38 23 -16 17 -34 30 -40 30 -7 0 -33 11 -59 25 -26 14 -49 25 -51 25 -3 0 -8
-12 -12 -27z m55 -28 c9 -9 32 -27 50 -41 17 -14 29 -31 25 -36 -3 -6 -1 -8 5
-4 10 6 49 -37 69 -79 6 -11 13 -39 17 -62 6 -41 5 -43 -26 -57 -69 -29 -122
-105 -112 -160 4 -23 1 -26 -23 -27 -16 0 -50 -3 -78 -6 -174 -20 -289 -3
-387 59 -50 31 -60 47 -30 49 9 0 26 3 37 6 11 2 83 5 160 6 100 1 147 -2 163
-11 46 -26 31 -5 -20 28 -60 39 -118 88 -118 100 0 5 16 14 35 21 19 7 35 17
35 21 0 4 3 7 8 6 14 -3 42 14 37 22 -3 5 0 12 6 16 8 5 9 3 4 -6 -6 -10 -2
-12 15 -7 27 7 85 -27 123 -73 41 -49 48 -32 15 39 -27 60 -31 100 -8 86 5 -3
10 0 10 8 0 8 -10 13 -22 13 -21 -1 -23 4 -26 52 -3 55 5 63 36 37z m-235
-115 c37 -7 66 -17 65 -22 -2 -5 -6 -8 -10 -6 -3 2 -15 -5 -26 -15 -11 -10
-23 -17 -28 -16 -5 1 -22 -3 -37 -9 -16 -7 -30 -12 -32 -12 -4 0 -35 79 -35
91 0 6 8 8 18 6 9 -3 48 -11 85 -17z m197 -30 c0 -5 -4 -10 -9 -10 -6 0 -13 5
-16 10 -3 6 1 10 9 10 9 0 16 -4 16 -10z m-201 -148 l35 -29 -80 0 c-91 0
-180 -11 -209 -26 -11 -5 -16 -6 -12 -1 5 5 52 30 105 55 104 49 103 49 161 1z
m2 -254 c0 -13 2 -48 5 -79 3 -32 1 -59 -4 -63 -41 -25 -302 -24 -373 2 -21 8
-21 9 12 30 67 41 296 131 337 132 16 0 22 -6 23 -22z"/>
<path d="M1297 324 c-1 -1 -42 -5 -92 -9 -49 -4 -106 -8 -125 -10 -35 -4 -108
-10 -230 -20 -36 -3 -85 -8 -110 -10 -25 -2 -79 -7 -120 -11 -41 -4 -84 -8
-95 -9 -11 -1 -26 -3 -32 -4 -9 -1 -11 -17 -7 -58 10 -111 5 -106 82 -98 37 3
92 8 122 11 30 2 80 6 110 9 30 2 87 7 125 10 39 3 88 8 110 10 22 2 78 7 125
11 47 3 92 8 100 10 8 1 34 3 58 3 l43 1 -6 77 c-4 43 -8 81 -11 85 -4 6 -41
7 -47 2z"/>
</g>
</svg>
